# Blender v2.93.5 OBJ File: 'bun.blend'
# www.blender.org
mtllib bun.mtl
o pao
v 0.784768 0.462101 -0.514518
v 0.941872 -0.113185 -0.725273
v 0.773227 0.465412 0.694717
v 0.907500 -0.112870 0.798677
v -0.337212 0.484173 -0.498005
v -0.448464 -0.100522 -0.665071
v -0.373190 0.488032 0.721600
v -0.507273 -0.099658 0.869249
v -0.578688 -0.142391 -0.351924
v -0.657822 -0.163350 0.110279
v -0.614789 -0.141941 0.566708
v 0.667987 -0.152740 -0.847709
v 0.255413 -0.170323 -0.898471
v -0.163141 -0.145482 -0.811139
v 0.905583 0.343575 -0.654961
v 1.002301 0.172383 -0.773337
v 1.006245 0.002575 -0.789174
v -0.581282 0.021185 0.948085
v -0.586905 0.196435 0.952130
v -0.494278 0.370179 0.851313
v 0.889808 0.346546 0.808210
v 0.979329 0.174480 0.890597
v 0.975755 0.003616 0.876825
v -0.444157 0.366436 -0.626433
v -0.524110 0.193443 -0.728702
v -0.516446 0.019373 -0.732489
v 0.535891 0.512750 0.771057
v 0.198497 0.541135 0.812380
v -0.138035 0.526425 0.786153
v 0.846280 0.502913 -0.260905
v 0.874468 0.524055 0.095663
v 0.840642 0.504939 0.448214
v -0.227365 -0.145019 0.985238
v 0.193927 -0.170219 1.030347
v 0.619512 -0.152631 0.941985
v -0.432037 0.531943 0.470747
v -0.453194 0.553229 0.113149
v -0.410650 0.529562 -0.245056
v -0.105899 0.521751 -0.567898
v 0.222777 0.536149 -0.603568
v 0.552278 0.508430 -0.576312
v 1.035059 -0.155722 0.482770
v 1.107162 -0.177192 0.021597
v 1.055411 -0.155818 -0.429178
v 0.549117 0.598900 -0.251960
v 0.213978 0.637275 -0.259004
v -0.119367 0.614504 -0.247222
v 0.556037 0.630297 0.107573
v 0.207990 0.672348 0.111661
v -0.138729 0.647322 0.112110
v 0.541927 0.601575 0.461858
v 0.203331 0.640344 0.478687
v -0.134627 0.617360 0.470021
v 0.619200 -0.003790 1.131264
v 0.619545 0.179787 1.140257
v 0.578627 0.363785 1.006567
v 0.187593 -0.008739 1.235305
v 0.188124 0.185938 1.236788
v 0.192713 0.380374 1.080030
v -0.238916 0.006076 1.171015
v -0.239239 0.191849 1.175077
v -0.190865 0.376758 1.031889
v -0.786989 0.011480 0.579662
v -0.792562 0.198828 0.579114
v -0.661004 0.384197 0.526565
v -0.845329 0.001626 0.120940
v -0.847156 0.198996 0.121726
v -0.702669 0.394331 0.117489
v -0.749186 0.010390 -0.344704
v -0.755437 0.197129 -0.340685
v -0.630741 0.382118 -0.293867
v -0.221061 -0.236388 -0.424008
v 0.244766 -0.270295 -0.484641
v 0.706409 -0.242913 -0.470910
v -0.271059 -0.267196 0.087245
v 0.227317 -0.303977 0.058683
v 0.724365 -0.273681 0.033760
v -0.258355 -0.236423 0.596962
v 0.208540 -0.270582 0.605646
v 0.677186 -0.243129 0.546635
v 1.217782 -0.010527 -0.424266
v 1.214180 0.169851 -0.402961
v 1.077241 0.352122 -0.331265
v 1.288306 -0.020689 0.028380
v 1.282463 0.169375 0.048618
v 1.130307 0.361475 0.073878
v 1.203563 -0.009967 0.490092
v 1.204433 0.170934 0.505219
v 1.070561 0.353671 0.479159
v -0.164823 0.004214 -0.985876
v -0.170548 0.188277 -0.975722
v -0.138806 0.372005 -0.821275
v 0.255384 -0.010324 -1.085984
v 0.247183 0.182433 -1.066444
v 0.234925 0.375432 -0.888662
v 0.669709 -0.005123 -1.015619
v 0.660857 0.176830 -0.998924
v 0.607102 0.359561 -0.836590
vt 0.687500 0.562500
vt 0.750000 0.562500
vt 0.750000 0.625000
vt 0.687500 0.625000
vt 0.812500 0.562500
vt 0.812500 0.625000
vt 0.750000 0.687500
vt 0.687500 0.687500
vt 0.812500 0.687500
vt 0.625000 0.500000
vt 0.687500 0.500000
vt 0.625000 0.562500
vt 0.750000 0.500000
vt 0.812500 0.500000
vt 0.875000 0.500000
vt 0.875000 0.562500
vt 0.875000 0.625000
vt 0.875000 0.687500
vt 0.875000 0.750000
vt 0.812500 0.750000
vt 0.750000 0.750000
vt 0.687500 0.750000
vt 0.625000 0.687500
vt 0.625000 0.750000
vt 0.625000 0.625000
vt 0.437500 0.812500
vt 0.500000 0.812500
vt 0.500000 0.875000
vt 0.437500 0.875000
vt 0.562500 0.812500
vt 0.562500 0.875000
vt 0.500000 0.937500
vt 0.437500 0.937500
vt 0.562500 0.937500
vt 0.375000 0.750000
vt 0.437500 0.750000
vt 0.375000 0.812500
vt 0.500000 0.750000
vt 0.562500 0.750000
vt 0.625000 0.812500
vt 0.625000 0.875000
vt 0.625000 0.937500
vt 0.625000 1.000000
vt 0.562500 1.000000
vt 0.500000 1.000000
vt 0.437500 1.000000
vt 0.375000 0.937500
vt 0.375000 1.000000
vt 0.375000 0.875000
vt 0.437500 0.062500
vt 0.500000 0.062500
vt 0.500000 0.125000
vt 0.437500 0.125000
vt 0.562500 0.062500
vt 0.562500 0.125000
vt 0.500000 0.187500
vt 0.437500 0.187500
vt 0.562500 0.187500
vt 0.375000 0.000000
vt 0.437500 0.000000
vt 0.375000 0.062500
vt 0.500000 0.000000
vt 0.562500 0.000000
vt 0.625000 0.000000
vt 0.625000 0.062500
vt 0.625000 0.125000
vt 0.625000 0.187500
vt 0.625000 0.250000
vt 0.562500 0.250000
vt 0.500000 0.250000
vt 0.437500 0.250000
vt 0.375000 0.187500
vt 0.375000 0.250000
vt 0.375000 0.125000
vt 0.187500 0.562500
vt 0.250000 0.562500
vt 0.250000 0.625000
vt 0.187500 0.625000
vt 0.312500 0.562500
vt 0.312500 0.625000
vt 0.250000 0.687500
vt 0.187500 0.687500
vt 0.312500 0.687500
vt 0.125000 0.500000
vt 0.187500 0.500000
vt 0.125000 0.562500
vt 0.250000 0.500000
vt 0.312500 0.500000
vt 0.375000 0.500000
vt 0.375000 0.562500
vt 0.375000 0.625000
vt 0.375000 0.687500
vt 0.312500 0.750000
vt 0.250000 0.750000
vt 0.187500 0.750000
vt 0.125000 0.687500
vt 0.125000 0.750000
vt 0.125000 0.625000
vt 0.437500 0.562500
vt 0.500000 0.562500
vt 0.500000 0.625000
vt 0.437500 0.625000
vt 0.562500 0.562500
vt 0.562500 0.625000
vt 0.500000 0.687500
vt 0.437500 0.687500
vt 0.562500 0.687500
vt 0.437500 0.500000
vt 0.500000 0.500000
vt 0.562500 0.500000
vt 0.437500 0.312500
vt 0.500000 0.312500
vt 0.500000 0.375000
vt 0.437500 0.375000
vt 0.562500 0.312500
vt 0.562500 0.375000
vt 0.500000 0.437500
vt 0.437500 0.437500
vt 0.562500 0.437500
vt 0.375000 0.312500
vt 0.625000 0.312500
vt 0.625000 0.375000
vt 0.625000 0.437500
vt 0.375000 0.437500
vt 0.375000 0.375000
vn 0.2023 0.9643 -0.1710
vn 0.0199 0.9822 -0.1868
vn 0.0234 0.9997 -0.0031
vn 0.2172 0.9761 -0.0002
vn -0.1706 0.9680 -0.1842
vn -0.1791 0.9838 -0.0078
vn 0.0249 0.9823 0.1858
vn 0.2105 0.9615 0.1763
vn -0.1667 0.9708 0.1724
vn 0.3575 0.8789 -0.3157
vn 0.1939 0.9103 -0.3658
vn 0.4071 0.8984 -0.1649
vn 0.0115 0.9204 -0.3908
vn -0.1777 0.9049 -0.3868
vn -0.3555 0.8677 -0.3475
vn -0.4023 0.8950 -0.1928
vn -0.4174 0.9086 -0.0161
vn -0.3972 0.9029 0.1646
vn -0.3450 0.8777 0.3325
vn -0.1641 0.9076 0.3863
vn 0.0280 0.9136 0.4056
vn 0.2159 0.8951 0.3901
vn 0.4236 0.8884 0.1771
vn 0.3821 0.8590 0.3406
vn 0.4311 0.9023 0.0030
vn 0.3662 -0.4150 0.8329
vn 0.3864 0.2851 0.8772
vn 0.0394 0.3092 0.9501
vn 0.0317 -0.4303 0.9021
vn 0.2845 0.7202 0.6327
vn 0.0345 0.7452 0.6659
vn -0.3285 0.3111 0.8918
vn -0.3228 -0.4039 0.8559
vn -0.2246 0.7420 0.6316
vn 0.4353 -0.8078 0.3974
vn 0.6787 -0.3838 0.6261
vn 0.2369 -0.8651 0.4421
vn 0.7073 0.2680 0.6541
vn 0.5296 0.6973 0.4830
vn -0.4978 0.7269 0.4732
vn -0.6932 0.3007 0.6550
vn -0.6779 -0.3716 0.6343
vn -0.2165 -0.8688 0.4454
vn -0.4352 -0.8087 0.3957
vn 0.0143 -0.8924 0.4510
vn -0.8752 -0.3917 0.2837
vn -0.9081 0.2962 0.2959
vn -0.9550 0.2945 -0.0351
vn -0.9125 -0.4077 -0.0321
vn -0.6558 0.7246 0.2120
vn -0.6886 0.7246 -0.0269
vn -0.8936 0.2887 -0.3438
vn -0.8645 -0.3793 -0.3297
vn -0.6567 0.7096 -0.2555
vn -0.4785 -0.8572 0.1902
vn -0.5087 0.7115 -0.4848
vn -0.6948 0.3038 -0.6518
vn -0.6898 -0.3391 -0.6396
vn -0.4903 -0.8425 -0.2231
vn -0.4606 -0.7853 -0.4137
vn -0.4872 -0.8730 -0.0190
vn -0.1856 -0.9690 -0.1628
vn -0.0146 -0.9877 -0.1553
vn -0.0066 -1.0000 -0.0009
vn -0.1729 -0.9849 -0.0068
vn 0.1590 -0.9750 -0.1552
vn 0.1586 -0.9873 0.0034
vn 0.0009 -0.9885 0.1512
vn -0.1690 -0.9742 0.1498
vn 0.1672 -0.9733 0.1571
vn -0.2602 -0.8487 -0.4604
vn -0.0256 -0.8808 -0.4728
vn 0.2206 -0.8542 -0.4709
vn 0.4450 -0.7908 -0.4201
vn 0.4822 -0.8508 -0.2086
vn 0.4769 -0.8789 0.0066
vn 0.4688 -0.8577 0.2110
vn 0.8852 -0.3454 -0.3115
vn 0.8841 0.3551 -0.3038
vn 0.9453 0.3260 0.0116
vn 0.9191 -0.3938 0.0068
vn 0.6352 0.7423 -0.2131
vn 0.6773 0.7357 0.0074
vn 0.8996 0.2882 0.3279
vn 0.8639 -0.3951 0.3123
vn 0.6614 0.7117 0.2367
vn 0.6927 -0.2954 -0.6579
vn 0.6769 0.3800 -0.6303
vn 0.4882 0.7518 -0.4432
vn -0.3773 -0.3554 -0.8552
vn -0.3710 0.3488 -0.8606
vn -0.0204 0.3887 -0.9211
vn -0.0287 -0.3634 -0.9312
vn -0.2533 0.7480 -0.6134
vn -0.0024 0.7762 -0.6304
vn 0.3372 0.3972 -0.8535
vn 0.3388 -0.3279 -0.8819
vn 0.2422 0.7719 -0.5878
usemtl pao
s 1
f 45/1/1 46/2/2 49/3/3 48/4/4
f 46/2/2 47/5/5 50/6/6 49/3/3
f 48/4/4 49/3/3 52/7/7 51/8/8
f 49/3/3 50/6/6 53/9/9 52/7/7
f 1/10/10 41/11/11 45/1/1 30/12/12
f 41/11/11 40/13/13 46/2/2 45/1/1
f 40/13/13 39/14/14 47/5/5 46/2/2
f 39/14/14 5/15/15 38/16/16 47/5/5
f 47/5/5 38/16/16 37/17/17 50/6/6
f 50/6/6 37/17/17 36/18/18 53/9/9
f 53/9/9 36/18/18 7/19/19 29/20/20
f 52/7/7 53/9/9 29/20/20 28/21/21
f 51/8/8 52/7/7 28/21/21 27/22/22
f 32/23/23 51/8/8 27/22/22 3/24/24
f 31/25/25 48/4/4 51/8/8 32/23/23
f 30/12/12 45/1/1 48/4/4 31/25/25
f 54/26/26 55/27/27 58/28/28 57/29/29
f 55/27/27 56/30/30 59/31/31 58/28/28
f 57/29/29 58/28/28 61/32/32 60/33/33
f 58/28/28 59/31/31 62/34/34 61/32/32
f 4/35/35 23/36/36 54/26/26 35/37/37
f 23/36/36 22/38/38 55/27/27 54/26/26
f 22/38/38 21/39/39 56/30/30 55/27/27
f 21/39/39 3/24/24 27/40/22 56/30/30
f 56/30/30 27/40/22 28/41/21 59/31/31
f 59/31/31 28/41/21 29/42/20 62/34/34
f 62/34/34 29/42/20 7/43/19 20/44/40
f 61/32/32 62/34/34 20/44/40 19/45/41
f 60/33/33 61/32/32 19/45/41 18/46/42
f 33/47/43 60/33/33 18/46/42 8/48/44
f 34/49/45 57/29/29 60/33/33 33/47/43
f 35/37/37 54/26/26 57/29/29 34/49/45
f 63/50/46 64/51/47 67/52/48 66/53/49
f 64/51/47 65/54/50 68/55/51 67/52/48
f 66/53/49 67/52/48 70/56/52 69/57/53
f 67/52/48 68/55/51 71/58/54 70/56/52
f 8/59/44 18/60/42 63/50/46 11/61/55
f 18/60/42 19/62/41 64/51/47 63/50/46
f 19/62/41 20/63/40 65/54/50 64/51/47
f 20/63/40 7/64/19 36/65/18 65/54/50
f 65/54/50 36/65/18 37/66/17 68/55/51
f 68/55/51 37/66/17 38/67/16 71/58/54
f 71/58/54 38/67/16 5/68/15 24/69/56
f 70/56/52 71/58/54 24/69/56 25/70/57
f 69/57/53 70/56/52 25/70/57 26/71/58
f 9/72/59 69/57/53 26/71/58 6/73/60
f 10/74/61 66/53/49 69/57/53 9/72/59
f 11/61/55 63/50/46 66/53/49 10/74/61
f 72/75/62 73/76/63 76/77/64 75/78/65
f 73/76/63 74/79/66 77/80/67 76/77/64
f 75/78/65 76/77/64 79/81/68 78/82/69
f 76/77/64 77/80/67 80/83/70 79/81/68
f 6/84/60 14/85/71 72/75/62 9/86/59
f 14/85/71 13/87/72 73/76/63 72/75/62
f 13/87/72 12/88/73 74/79/66 73/76/63
f 12/88/73 2/89/74 44/90/75 74/79/66
f 74/79/66 44/90/75 43/91/76 77/80/67
f 77/80/67 43/91/76 42/92/77 80/83/70
f 80/83/70 42/92/77 4/35/35 35/93/37
f 79/81/68 80/83/70 35/93/37 34/94/45
f 78/82/69 79/81/68 34/94/45 33/95/43
f 11/96/55 78/82/69 33/95/43 8/97/44
f 10/98/61 75/78/65 78/82/69 11/96/55
f 9/86/59 72/75/62 75/78/65 10/98/61
f 81/99/78 82/100/79 85/101/80 84/102/81
f 82/100/79 83/103/82 86/104/83 85/101/80
f 84/102/81 85/101/80 88/105/84 87/106/85
f 85/101/80 86/104/83 89/107/86 88/105/84
f 2/89/74 17/108/87 81/99/78 44/90/75
f 17/108/87 16/109/88 82/100/79 81/99/78
f 16/109/88 15/110/89 83/103/82 82/100/79
f 15/110/89 1/10/10 30/12/12 83/103/82
f 83/103/82 30/12/12 31/25/25 86/104/83
f 86/104/83 31/25/25 32/23/23 89/107/86
f 89/107/86 32/23/23 3/24/24 21/39/39
f 88/105/84 89/107/86 21/39/39 22/38/38
f 87/106/85 88/105/84 22/38/38 23/36/36
f 42/92/77 87/106/85 23/36/36 4/35/35
f 43/91/76 84/102/81 87/106/85 42/92/77
f 44/90/75 81/99/78 84/102/81 43/91/76
f 90/111/90 91/112/91 94/113/92 93/114/93
f 91/112/91 92/115/94 95/116/95 94/113/92
f 93/114/93 94/113/92 97/117/96 96/118/97
f 94/113/92 95/116/95 98/119/98 97/117/96
f 6/73/60 26/71/58 90/111/90 14/120/71
f 26/71/58 25/70/57 91/112/91 90/111/90
f 25/70/57 24/69/56 92/115/94 91/112/91
f 24/69/56 5/68/15 39/121/14 92/115/94
f 92/115/94 39/121/14 40/122/13 95/116/95
f 95/116/95 40/122/13 41/123/11 98/119/98
f 98/119/98 41/123/11 1/10/10 15/110/89
f 97/117/96 98/119/98 15/110/89 16/109/88
f 96/118/97 97/117/96 16/109/88 17/108/87
f 12/124/73 96/118/97 17/108/87 2/89/74
f 13/125/72 93/114/93 96/118/97 12/124/73
f 14/120/71 90/111/90 93/114/93 13/125/72
